{
  "accessors": [
    {
      "bufferView": 2,
      "componentType": 5126,
      "count": 65532,
      "max": [
        20.283742904663086,
        18.581764221191406,
        23.740028381347656
      ],
      "min": [
        -14.352070808410645,
        -18.049137115478516,
        -0.5964221954345703
      ],
      "type": "VEC3"
    },
    {
      "bufferView": 2,
      "byteOffset": 786384,
      "componentType": 5126,
      "count": 65532,
      "max": [
        0.9999918341636658,
        0.9998009204864502,
        0.9999614953994751
      ],
      "min": [
        -0.9998155832290649,
        -0.9999716877937317,
        -0.9994834661483765
      ],
      "type": "VEC3"
    },
    {
      "bufferView": 1,
      "componentType": 5126,
      "count": 65532,
      "max": [
        0.9991825222969055,
        0.99951171875
      ],
      "min": [
        0.00048828125,
        0.000883638858795166
      ],
      "type": "VEC2"
    },
    {
      "bufferView": 0,
      "componentType": 5125,
      "count": 178734,
      "type": "SCALAR"
    },
    {
      "bufferView": 2,
      "byteOffset": 1572768,
      "componentType": 5126,
      "count": 65532,
      "max": [
        20.38724136352539,
        26.68710708618164,
        24.795181274414063
      ],
      "min": [
        -31.049850463867188,
        -17.81391716003418,
        -0.9726219177246094
      ],
      "type": "VEC3"
    },
    {
      "bufferView": 2,
      "byteOffset": 2359152,
      "componentType": 5126,
      "count": 65532,
      "max": [
        0.9999678134918213,
        0.9999279379844666,
        0.9998418092727661
      ],
      "min": [
        -0.9998812079429626,
        -0.9999809265136719,
        -0.9997562170028687
      ],
      "type": "VEC3"
    },
    {
      "bufferView": 1,
      "byteOffset": 524256,
      "componentType": 5126,
      "count": 65532,
      "max": [
        0.9992573857307434,
        0.99951171875
      ],
      "min": [
        0.00048828125,
        0.0007687807083129883
      ],
      "type": "VEC2"
    },
    {
      "bufferView": 0,
      "byteOffset": 714936,
      "componentType": 5125,
      "count": 152421,
      "type": "SCALAR"
    },
    {
      "bufferView": 2,
      "byteOffset": 3145536,
      "componentType": 5126,
      "count": 29629,
      "max": [
        17.455698013305664,
        21.170207977294922,
        15.058917999267578
      ],
      "min": [
        -11.717869758605957,
        1.0206832885742188,
        -0.4333992004394531
      ],
      "type": "VEC3"
    },
    {
      "bufferView": 2,
      "byteOffset": 3501084,
      "componentType": 5126,
      "count": 29629,
      "max": [
        0.999987781047821,
        0.9949308633804321,
        0.9999637007713318
      ],
      "min": [
        -0.9997273087501526,
        -0.9999169111251831,
        -0.9988551139831543
      ],
      "type": "VEC3"
    },
    {
      "bufferView": 1,
      "byteOffset": 1048512,
      "componentType": 5126,
      "count": 29629,
      "max": [
        0.9992162585258484,
        0.99951171875
      ],
      "min": [
        0.00048828125,
        0.0008145570755004883
      ],
      "type": "VEC2"
    },
    {
      "bufferView": 0,
      "byteOffset": 1324620,
      "componentType": 5125,
      "count": 66099,
      "type": "SCALAR"
    },
    {
      "bufferView": 2,
      "byteOffset": 3856632,
      "componentType": 5126,
      "count": 65532,
      "max": [
        18.989795684814453,
        19.565799713134766,
        23.626691818237305
      ],
      "min": [
        -12.760600090026855,
        -17.118694305419922,
        -0.446868896484375
      ],
      "type": "VEC3"
    },
    {
      "bufferView": 2,
      "byteOffset": 4643016,
      "componentType": 5126,
      "count": 65532,
      "max": [
        0.9999901652336121,
        0.9998279809951782,
        0.9999802112579346
      ],
      "min": [
        -0.9999682903289795,
        -0.9999703168869019,
        -0.9999907612800598
      ],
      "type": "VEC3"
    },
    {
      "bufferView": 1,
      "byteOffset": 1285544,
      "componentType": 5126,
      "count": 65532,
      "max": [
        0.9992102384567261,
        0.9266377091407776
      ],
      "min": [
        0.00048828125,
        0.0008211731910705566
      ],
      "type": "VEC2"
    },
    {
      "bufferView": 0,
      "byteOffset": 1589016,
      "componentType": 5125,
      "count": 209205,
      "type": "SCALAR"
    },
    {
      "bufferView": 2,
      "byteOffset": 5429400,
      "componentType": 5126,
      "count": 65532,
      "max": [
        19.998336791992188,
        26.689128875732422,
        24.795181274414063
      ],
      "min": [
        -31.049850463867188,
        -18.049137115478516,
        -0.9726219177246094
      ],
      "type": "VEC3"
    },
    {
      "bufferView": 2,
      "byteOffset": 6215784,
      "componentType": 5126,
      "count": 65532,
      "max": [
        0.999971866607666,
        0.9999547004699707,
        0.9999158382415771
      ],
      "min": [
        -0.9986435770988464,
        -0.9999808073043823,
        -0.9997237324714661
      ],
      "type": "VEC3"
    },
    {
      "bufferView": 1,
      "byteOffset": 1809800,
      "componentType": 5126,
      "count": 65532,
      "max": [
        0.9989206790924072,
        0.91943359375
      ],
      "min": [
        0.00048828125,
        0.000759422779083252
      ],
      "type": "VEC2"
    },
    {
      "bufferView": 0,
      "byteOffset": 2425836,
      "componentType": 5125,
      "count": 192399,
      "type": "SCALAR"
    },
    {
      "bufferView": 2,
      "byteOffset": 7002168,
      "componentType": 5126,
      "count": 14933,
      "max": [
        17.54445457458496,
        17.78255844116211,
        15.00109577178955
      ],
      "min": [
        -11.576645851135254,
        1.0478096008300781,
        -0.37230873107910156
      ],
      "type": "VEC3"
    },
    {
      "bufferView": 2,
      "byteOffset": 7181364,
      "componentType": 5126,
      "count": 14933,
      "max": [
        0.9998605847358704,
        0.9957612752914429,
        0.9999727606773376
      ],
      "min": [
        -0.997092604637146,
        -0.9999016523361206,
        -0.9994252920150757
      ],
      "type": "VEC3"
    },
    {
      "bufferView": 1,
      "byteOffset": 2334056,
      "componentType": 5126,
      "count": 14933,
      "max": [
        0.9986392855644226,
        0.93310546875
      ],
      "min": [
        0.01025390625,
        0.0010036230087280273
      ],
      "type": "VEC2"
    },
    {
      "bufferView": 0,
      "byteOffset": 3195432,
      "componentType": 5125,
      "count": 40209,
      "type": "SCALAR"
    },
    {
      "bufferView": 2,
      "byteOffset": 7360560,
      "componentType": 5126,
      "count": 65534,
      "max": [
        20.930099487304688,
        23.464611053466797,
        24.798194885253906
      ],
      "min": [
        -20.651077270507813,
        -2.312626838684082,
        -0.8193988800048828
      ],
      "type": "VEC3"
    },
    {
      "bufferView": 2,
      "byteOffset": 8146968,
      "componentType": 5126,
      "count": 65534,
      "max": [
        0.9999641180038452,
        0.9848330020904541,
        0.9999958872795105
      ],
      "min": [
        -0.9999146461486816,
        -0.9999740123748779,
        -0.9993568658828735
      ],
      "type": "VEC3"
    },
    {
      "bufferView": 1,
      "byteOffset": 2453520,
      "componentType": 5126,
      "count": 65534,
      "max": [
        0.9992600083351135,
        0.99951171875
      ],
      "min": [
        0.00048828125,
        0.0008131265640258789
      ],
      "type": "VEC2"
    },
    {
      "bufferView": 0,
      "byteOffset": 3356268,
      "componentType": 5125,
      "count": 186702,
      "type": "SCALAR"
    },
    {
      "bufferView": 2,
      "byteOffset": 8933376,
      "componentType": 5126,
      "count": 65534,
      "max": [
        21.320911407470703,
        25.240501403808594,
        24.750370025634766
      ],
      "min": [
        -21.124961853027344,
        -18.357805252075195,
        -0.1487751007080078
      ],
      "type": "VEC3"
    },
    {
      "bufferView": 2,
      "byteOffset": 9719784,
      "componentType": 5126,
      "count": 65534,
      "max": [
        0.9999751448631287,
        0.9999983310699463,
        0.9999979734420776
      ],
      "min": [
        -0.9957171678543091,
        -0.9999369382858276,
        -0.9991415143013
      ],
      "type": "VEC3"
    },
    {
      "bufferView": 1,
      "byteOffset": 2977792,
      "componentType": 5126,
      "count": 65534,
      "max": [
        0.9992550015449524,
        0.99951171875
      ],
      "min": [
        0.00048828125,
        0.0007919669151306152
      ],
      "type": "VEC2"
    },
    {
      "bufferView": 0,
      "byteOffset": 4103076,
      "componentType": 5125,
      "count": 158628,
      "type": "SCALAR"
    },
    {
      "bufferView": 2,
      "byteOffset": 10506192,
      "componentType": 5126,
      "count": 14005,
      "max": [
        16.531530380249023,
        26.68710708618164,
        23.569881439208984
      ],
      "min": [
        -31.057209014892578,
        -17.095211029052734,
        -0.8852806091308594
      ],
      "type": "VEC3"
    },
    {
      "bufferView": 2,
      "byteOffset": 10674252,
      "componentType": 5126,
      "count": 14005,
      "max": [
        0.9996106028556824,
        0.9930099844932556,
        0.999879777431488
      ],
      "min": [
        -0.9850361943244934,
        -0.9993489980697632,
        -0.9996601343154907
      ],
      "type": "VEC3"
    },
    {
      "bufferView": 1,
      "byteOffset": 3502064,
      "componentType": 5126,
      "count": 14005,
      "max": [
        0.9992000460624695,
        0.99951171875
      ],
      "min": [
        0.00048828125,
        0.0010576248168945313
      ],
      "type": "VEC2"
    },
    {
      "bufferView": 0,
      "byteOffset": 4737588,
      "componentType": 5125,
      "count": 26196,
      "type": "SCALAR"
    },
    {
      "bufferView": 2,
      "byteOffset": 10842312,
      "componentType": 5126,
      "count": 65532,
      "max": [
        17.80890655517578,
        21.67434310913086,
        23.701499938964844
      ],
      "min": [
        -15.252057075500488,
        -17.523067474365234,
        -0.5741710662841797
      ],
      "type": "VEC3"
    },
    {
      "bufferView": 2,
      "byteOffset": 11628696,
      "componentType": 5126,
      "count": 65532,
      "max": [
        0.9998716711997986,
        0.999983012676239,
        0.9999967813491821
      ],
      "min": [
        -0.999908447265625,
        -0.9999804496765137,
        -0.9999458193778992
      ],
      "type": "VEC3"
    },
    {
      "bufferView": 1,
      "byteOffset": 3614104,
      "componentType": 5126,
      "count": 65532,
      "max": [
        0.9992218017578125,
        0.99951171875
      ],
      "min": [
        0.00048828125,
        0.0007568001747131348
      ],
      "type": "VEC2"
    },
    {
      "bufferView": 0,
      "byteOffset": 4842372,
      "componentType": 5125,
      "count": 160971,
      "type": "SCALAR"
    },
    {
      "bufferView": 2,
      "byteOffset": 12415080,
      "componentType": 5126,
      "count": 49039,
      "max": [
        17.812902450561523,
        26.689128875732422,
        24.67342758178711
      ],
      "min": [
        -31.031253814697266,
        -17.810699462890625,
        -1.0005741119384766
      ],
      "type": "VEC3"
    },
    {
      "bufferView": 2,
      "byteOffset": 13003548,
      "componentType": 5126,
      "count": 49039,
      "max": [
        0.9999440908432007,
        0.999212384223938,
        0.9999538064002991
      ],
      "min": [
        -0.999897301197052,
        -0.9998976588249207,
        -0.9999797940254211
      ],
      "type": "VEC3"
    },
    {
      "bufferView": 1,
      "byteOffset": 4138360,
      "componentType": 5126,
      "count": 49039,
      "max": [
        0.9992213249206543,
        0.99951171875
      ],
      "min": [
        0.00048828125,
        0.0007324814796447754
      ],
      "type": "VEC2"
    },
    {
      "bufferView": 0,
      "byteOffset": 5486256,
      "componentType": 5125,
      "count": 99531,
      "type": "SCALAR"
    }
  ],
  "asset": {
    "extras": {
      "author": "9of9 (https://sketchfab.com/9of9)",
      "license": "CC-BY-4.0 (http://creativecommons.org/licenses/by/4.0/)",
      "source": "https://sketchfab.com/3d-models/pedra-tosca-cave-d2b53cf631e543118053a8536df58cbc",
      "title": "Pedra Tosca: Cave"
    },
    "generator": "Sketchfab-12.65.0",
    "version": "2.0"
  },
  "bufferViews": [
    {
      "buffer": 0,
      "byteLength": 5884380,
      "name": "floatBufferViews",
      "target": 34963
    },
    {
      "buffer": 0,
      "byteLength": 4530672,
      "byteOffset": 5884380,
      "byteStride": 8,
      "name": "floatBufferViews",
      "target": 34962
    },
    {
      "buffer": 0,
      "byteLength": 13592016,
      "byteOffset": 10415052,
      "byteStride": 12,
      "name": "floatBufferViews",
      "target": 34962
    }
  ],
  "buffers": [
    {
      "byteLength": 24007068,
      "uri": "scene.bin"
    }
  ],
  "extensionsUsed": [
    "KHR_materials_unlit"
  ],
  "images": [
    {
      "uri": "textures/Material_u1_v2_baseColor.jpeg"
    },
    {
      "uri": "textures/Material_u2_v2_baseColor.jpeg"
    },
    {
      "uri": "textures/Material_u1_v1_baseColor.jpeg"
    },
    {
      "uri": "textures/Material_u2_v1_baseColor.jpeg"
    }
  ],
  "materials": [
    {
      "extensions": {
        "KHR_materials_unlit": {}
      },
      "name": "Material_u1_v2",
      "pbrMetallicRoughness": {
        "baseColorTexture": {
          "index": 0
        },
        "metallicFactor": 0.0
      }
    },
    {
      "extensions": {
        "KHR_materials_unlit": {}
      },
      "name": "Material_u2_v2",
      "pbrMetallicRoughness": {
        "baseColorTexture": {
          "index": 1
        },
        "metallicFactor": 0.0
      }
    },
    {
      "extensions": {
        "KHR_materials_unlit": {}
      },
      "name": "Material_u1_v1",
      "pbrMetallicRoughness": {
        "baseColorTexture": {
          "index": 2
        },
        "metallicFactor": 0.0
      }
    },
    {
      "extensions": {
        "KHR_materials_unlit": {}
      },
      "name": "Material_u2_v1",
      "pbrMetallicRoughness": {
        "baseColorTexture": {
          "index": 3
        },
        "metallicFactor": 0.0
      }
    }
  ],
  "meshes": [
    {
      "name": "meshNode_Material_u1_v2_0",
      "primitives": [
        {
          "attributes": {
            "NORMAL": 1,
            "POSITION": 0,
            "TEXCOORD_0": 2
          },
          "indices": 3,
          "material": 0,
          "mode": 4
        }
      ]
    },
    {
      "name": "meshNode_Material_u1_v2_0",
      "primitives": [
        {
          "attributes": {
            "NORMAL": 5,
            "POSITION": 4,
            "TEXCOORD_0": 6
          },
          "indices": 7,
          "material": 0,
          "mode": 4
        }
      ]
    },
    {
      "name": "meshNode_Material_u1_v2_0",
      "primitives": [
        {
          "attributes": {
            "NORMAL": 9,
            "POSITION": 8,
            "TEXCOORD_0": 10
          },
          "indices": 11,
          "material": 0,
          "mode": 4
        }
      ]
    },
    {
      "name": "meshNode_Material_u2_v2_0",
      "primitives": [
        {
          "attributes": {
            "NORMAL": 13,
            "POSITION": 12,
            "TEXCOORD_0": 14
          },
          "indices": 15,
          "material": 1,
          "mode": 4
        }
      ]
    },
    {
      "name": "meshNode_Material_u2_v2_0",
      "primitives": [
        {
          "attributes": {
            "NORMAL": 17,
            "POSITION": 16,
            "TEXCOORD_0": 18
          },
          "indices": 19,
          "material": 1,
          "mode": 4
        }
      ]
    },
    {
      "name": "meshNode_Material_u2_v2_0",
      "primitives": [
        {
          "attributes": {
            "NORMAL": 21,
            "POSITION": 20,
            "TEXCOORD_0": 22
          },
          "indices": 23,
          "material": 1,
          "mode": 4
        }
      ]
    },
    {
      "name": "meshNode_Material_u1_v1_0",
      "primitives": [
        {
          "attributes": {
            "NORMAL": 25,
            "POSITION": 24,
            "TEXCOORD_0": 26
          },
          "indices": 27,
          "material": 2,
          "mode": 4
        }
      ]
    },
    {
      "name": "meshNode_Material_u1_v1_0",
      "primitives": [
        {
          "attributes": {
            "NORMAL": 29,
            "POSITION": 28,
            "TEXCOORD_0": 30
          },
          "indices": 31,
          "material": 2,
          "mode": 4
        }
      ]
    },
    {
      "name": "meshNode_Material_u1_v1_0",
      "primitives": [
        {
          "attributes": {
            "NORMAL": 33,
            "POSITION": 32,
            "TEXCOORD_0": 34
          },
          "indices": 35,
          "material": 2,
          "mode": 4
        }
      ]
    },
    {
      "name": "meshNode_Material_u2_v1_0",
      "primitives": [
        {
          "attributes": {
            "NORMAL": 37,
            "POSITION": 36,
            "TEXCOORD_0": 38
          },
          "indices": 39,
          "material": 3,
          "mode": 4
        }
      ]
    },
    {
      "name": "meshNode_Material_u2_v1_0",
      "primitives": [
        {
          "attributes": {
            "NORMAL": 41,
            "POSITION": 40,
            "TEXCOORD_0": 42
          },
          "indices": 43,
          "material": 3,
          "mode": 4
        }
      ]
    }
  ],
  "nodes": [
    {
      "children": [
        1
      ],
      "matrix": [
        0.12441712617874146,
        0.0,
        0.0,
        0.0,
        0.0,
        -2.7626151628266417e-17,
        0.12441712617874146,
        0.0,
        0.0,
        -0.12441712617874146,
        -2.7626151628266417e-17,
        0.0,
        0.0,
        -23.797412872314457,
        8.331600189208979,
        1.0
      ],
      "name": "Sketchfab_model"
    },
    {
      "children": [
        2
      ],
      "matrix": [
        1.0,
        0.0,
        0.0,
        0.0,
        0.0,
        -1.0,
        0.0,
        0.0,
        0.0,
        0.0,
        -1.0,
        0.0,
        0.0,
        0.0,
        0.0,
        1.0
      ],
      "name": "Cave.fbx"
    },
    {
      "children": [
        3
      ],
      "name": "RootNode"
    },
    {
      "children": [
        4,
        5,
        6,
        7,
        8,
        9,
        10,
        11,
        12,
        13,
        14
      ],
      "name": "meshNode"
    },
    {
      "mesh": 0,
      "name": "meshNode_Material_u1_v2_0"
    },
    {
      "mesh": 1,
      "name": "meshNode_Material_u1_v2_0"
    },
    {
      "mesh": 2,
      "name": "meshNode_Material_u1_v2_0"
    },
    {
      "mesh": 3,
      "name": "meshNode_Material_u2_v2_0"
    },
    {
      "mesh": 4,
      "name": "meshNode_Material_u2_v2_0"
    },
    {
      "mesh": 5,
      "name": "meshNode_Material_u2_v2_0"
    },
    {
      "mesh": 6,
      "name": "meshNode_Material_u1_v1_0"
    },
    {
      "mesh": 7,
      "name": "meshNode_Material_u1_v1_0"
    },
    {
      "mesh": 8,
      "name": "meshNode_Material_u1_v1_0"
    },
    {
      "mesh": 9,
      "name": "meshNode_Material_u2_v1_0"
    },
    {
      "mesh": 10,
      "name": "meshNode_Material_u2_v1_0"
    }
  ],
  "samplers": [
    {
      "magFilter": 9729,
      "minFilter": 9987,
      "wrapS": 10497,
      "wrapT": 10497
    }
  ],
  "scene": 0,
  "scenes": [
    {
      "name": "Sketchfab_Scene",
      "nodes": [
        0
      ]
    }
  ],
  "textures": [
    {
      "sampler": 0,
      "source": 0
    },
    {
      "sampler": 0,
      "source": 1
    },
    {
      "sampler": 0,
      "source": 2
    },
    {
      "sampler": 0,
      "source": 3
    }
  ]
}
